<svg width="558" height="327" viewBox="0 0 558 327" fill="none" xmlns="http://www.w3.org/2000/svg">
<g clip-path="url(#clip0)">
<path opacity="0.1" d="M554.505 225.255C548.906 237.819 537.192 249.167 524.618 259.915C513.564 269.364 501.74 278.495 489.146 287.308C485.656 289.755 482.11 292.171 478.509 294.556L476.007 296.203C473.788 297.667 471.532 299.119 469.238 300.556L468.963 300.73C466.738 302.143 464.493 303.542 462.228 304.927C454.82 309.468 446.99 313.977 438.333 317.711C435.384 318.986 432.341 320.175 429.19 321.239C427.486 321.817 425.746 322.358 423.97 322.862C421.06 323.688 418.071 324.408 414.95 325C414.429 325.101 413.903 325.197 413.377 325.289C410.181 325.849 406.947 326.257 403.678 326.537C391.699 327.56 379.326 326.812 367.327 325.06C361.33 324.184 355.426 323.055 349.714 321.771C349.011 321.615 348.313 321.454 347.61 321.312C328.159 316.771 309.897 310.606 290.308 306.271C283.558 304.776 276.676 303.507 269.663 302.464C266.241 301.956 262.8 301.498 259.34 301.088C251.195 300.143 242.946 299.51 234.663 299.189C223.495 298.73 211.963 298.927 201.335 300.748C199.919 300.99 198.522 301.262 197.142 301.565C195.392 301.947 193.675 302.383 191.991 302.872C187.45 304.241 183.03 305.939 178.772 307.95C177.932 308.335 177.101 308.725 176.27 309.12C173.665 310.358 171.094 311.624 168.484 312.854C163.786 315.148 158.897 317.084 153.865 318.642C151.108 319.455 148.305 320.123 145.469 320.642C137.963 322.046 129.975 322.601 121.952 322.638C118.084 322.638 114.21 322.56 110.381 322.372H110.263C108.955 322.307 107.643 322.234 106.33 322.142C100.353 321.762 94.3952 321.174 88.5259 320.372C68.416 317.62 49.3433 312.418 34.0015 304.482C13.1641 293.712 -0.0688142 277.653 1.91711 261.607C3.34265 250.048 12.1957 239.314 20.5966 228.806C36.2234 209.237 50.8622 189.224 58.565 168.128C64.8128 151.005 66.6759 132.9 81.0541 117.51C85.6601 112.584 91.5491 108.089 98.4064 104.148C103.532 101.22 108.905 98.6859 114.471 96.5707C120.762 94.1662 127.233 92.1962 133.833 90.6763C139.554 89.3521 145.351 88.3352 151.196 87.6306C154.371 87.2453 157.586 86.9471 160.82 86.7453C163.311 86.5832 165.813 86.4808 168.327 86.4379H168.715C170.252 86.4104 171.789 86.4104 173.326 86.4379C184.533 86.5998 195.709 87.5799 206.752 89.3691C213.664 90.447 220.516 91.7681 227.226 93.2222C231.231 94.0876 235.199 94.9943 239.132 95.9423C240.331 96.2312 241.53 96.5248 242.715 96.823C270.695 103.818 295.313 113.478 322.27 121.405C322.408 121.446 322.54 121.487 322.678 121.52C328.211 123.107 333.829 124.424 339.509 125.464C343.683 126.244 347.949 126.918 352.29 127.51C358.936 128.428 365.724 129.152 372.562 129.776L374.071 129.914C384.104 130.831 394.225 131.515 404.057 132.313C407.547 132.597 411.007 132.891 414.419 133.23C416.582 133.432 418.725 133.646 420.848 133.872C422.372 134.038 423.901 134.203 425.43 134.377C426.959 134.551 428.576 134.735 430.149 134.923C431.171 135.042 432.189 135.166 433.211 135.299C439.405 136.065 445.584 136.923 451.694 137.904C455.41 138.501 459.107 139.143 462.759 139.836C465.404 140.337 468.026 140.866 470.624 141.423C472.551 141.829 474.462 142.257 476.356 142.707C491.747 146.317 506.15 151.051 518.562 157.441C550.794 173.995 565.216 201.228 554.505 225.255Z" fill="#FFD700"/>
<path opacity="0.1" d="M122.395 41.4667C128.267 41.4667 133.027 37.0246 133.027 31.545C133.027 26.0654 128.267 21.6232 122.395 21.6232C116.523 21.6232 111.762 26.0654 111.762 31.545C111.762 37.0246 116.523 41.4667 122.395 41.4667Z" fill="#FFD700"/>
<path opacity="0.1" d="M339.721 19.8435C345.593 19.8435 350.353 15.4014 350.353 9.92174C350.353 4.44211 345.593 0 339.721 0C333.848 0 329.088 4.44211 329.088 9.92174C329.088 15.4014 333.848 19.8435 339.721 19.8435Z" fill="#FFD700"/>
<path opacity="0.1" d="M468.584 42.063C474.457 42.063 479.217 37.6209 479.217 32.1413C479.217 26.6617 474.457 22.2196 468.584 22.2196C462.712 22.2196 457.952 26.6617 457.952 32.1413C457.952 37.6209 462.712 42.063 468.584 42.063Z" fill="#FFD700"/>
<path opacity="0.1" d="M17.8192 72.1769C27.6605 72.1769 35.6385 64.7323 35.6385 55.5489C35.6385 46.3655 27.6605 38.9209 17.8192 38.9209C7.97794 38.9209 0 46.3655 0 55.5489C0 64.7323 7.97794 72.1769 17.8192 72.1769Z" fill="#FFD700"/>
<path opacity="0.1" d="M34.9011 154.285C44.7424 154.285 52.7204 146.84 52.7204 137.657C52.7204 128.473 44.7424 121.029 34.9011 121.029C25.0599 121.029 17.0819 128.473 17.0819 137.657C17.0819 146.84 25.0599 154.285 34.9011 154.285Z" fill="#FFD700"/>
<path opacity="0.1" d="M513.155 124.061C522.996 124.061 530.974 116.616 530.974 107.433C530.974 98.2494 522.996 90.8048 513.155 90.8048C503.313 90.8048 495.335 98.2494 495.335 107.433C495.335 116.616 503.313 124.061 513.155 124.061Z" fill="#FFD700"/>
<path d="M174.186 109.79C174.274 111.187 174.187 112.588 173.925 113.965C172.942 118.226 168.784 121.153 164.758 123.373C160.732 125.593 156.308 127.694 153.914 131.441C151.028 135.969 151.948 142.056 155.335 146.285C158.721 150.514 164.089 153.032 169.614 154.083C179.692 156.023 190.727 153.298 198.283 146.785C205.838 140.271 209.628 130.093 207.775 120.639C203.675 121.175 200.023 117.799 198.695 114.139C197.368 110.479 197.643 106.511 197.127 102.671C197.09 102.022 196.88 101.392 196.518 100.837C195.943 100.094 194.925 99.7908 193.976 99.5477C189.238 98.3321 181.265 95.6716 176.354 96.69C171.93 97.6349 174.112 106.323 174.186 109.79Z" fill="#BE6F72"/>
<path opacity="0.1" d="M174.186 109.79C174.274 111.187 174.187 112.588 173.925 113.965C172.942 118.226 168.784 121.153 164.758 123.373C160.732 125.593 156.308 127.694 153.914 131.441C151.028 135.969 151.948 142.056 155.335 146.285C158.721 150.514 164.089 153.032 169.614 154.083C179.692 156.023 190.727 153.298 198.283 146.785C205.838 140.271 209.628 130.093 207.775 120.639C203.675 121.175 200.023 117.799 198.695 114.139C197.368 110.479 197.643 106.511 197.127 102.671C197.09 102.022 196.88 101.392 196.518 100.837C195.943 100.094 194.925 99.7908 193.976 99.5477C189.238 98.3321 181.265 95.6716 176.354 96.69C171.93 97.6349 174.112 106.323 174.186 109.79Z" fill="black"/>
<path d="M168.459 312.863C163.762 315.157 158.873 317.093 153.84 318.652C151.084 319.464 148.281 320.132 145.444 320.652C145.244 317.124 145.45 313.587 146.059 310.101C146.442 308.097 147.007 306.111 147.155 304.079C147.364 301.145 146.691 298.216 145.213 295.62C150.689 294.923 155.89 293.785 161.391 294.12L161.74 294.143C162.394 294.159 163.041 294.272 163.657 294.478C164.503 294.86 165.222 295.45 165.736 296.184C166.019 296.545 166.28 296.92 166.518 297.308C168.071 299.813 168.661 302.703 168.784 305.679C168.842 308.078 168.733 310.477 168.459 312.863Z" fill="#BE6F72"/>
<path d="M197.122 301.57C195.372 301.952 193.655 302.388 191.971 302.877C187.43 304.246 183.01 305.944 178.753 307.955C178.476 306.705 178.341 305.432 178.35 304.157C180.858 302.542 183.69 301.415 186.675 300.842C189.66 300.269 192.738 300.262 195.726 300.822C196.126 300.867 196.506 301.009 196.827 301.235C196.944 301.331 197.044 301.444 197.122 301.57Z" fill="#BE6F72"/>
<path d="M205.573 278.414C205.238 281.414 204.747 284.423 203.606 287.244C202.372 290.272 200.367 293.207 200.622 296.441C200.736 297.845 201.247 299.368 201.32 300.758C199.905 300.999 198.507 301.271 197.127 301.574C195.377 301.956 193.66 302.392 191.976 302.881C187.435 304.251 183.015 305.948 178.758 307.959C177.917 308.345 177.086 308.734 176.256 309.129C175.911 309.088 175.572 309.037 175.228 308.978C172.77 308.56 170.185 307.533 168.794 305.698C168.475 305.276 168.225 304.812 168.051 304.322C167.25 302.088 168.086 299.304 166.419 297.533L166.341 297.597L166.282 297.634C165.369 298.405 164.366 299.079 163.293 299.643C160.85 300.933 158.143 301.73 155.348 301.981C152.554 302.233 149.734 301.933 147.071 301.102C146.016 300.766 144.998 300.34 144.029 299.826C141.777 298.629 139.604 296.616 139.781 294.212C139.88 292.873 140.701 291.588 140.479 290.262C140.317 289.313 139.649 288.524 139.147 287.685C135.859 282.18 139.781 275.102 137.717 269.121C137.668 268.979 137.614 268.836 137.56 268.699C137.407 268.309 137.235 267.933 137.068 267.557C136.645 266.681 136.173 265.818 135.8 264.919C135.489 264.163 135.242 263.386 135.062 262.594C134.598 260.293 134.433 257.949 134.571 255.612C134.571 249.452 135.751 243.145 137.432 237.209C137.732 236.154 138.066 234.663 138.508 233.039C138.94 231.328 139.522 229.652 140.248 228.03C141.232 225.92 142.569 224.237 144.397 223.838C147.15 223.237 151.358 224.507 154.15 224.819L165.186 226.049L187.252 228.512C191.062 228.939 195.063 229.429 198.204 231.429C198.41 231.562 198.612 231.7 198.814 231.847C199.643 232.457 200.387 233.163 201.026 233.948C201.252 234.218 201.468 234.503 201.674 234.792C202.39 235.814 202.999 236.899 203.493 238.03C206.231 244.167 206.295 251.016 206.315 257.662C206.315 264.598 206.339 271.529 205.573 278.414Z" fill="#3F3D56"/>
<path opacity="0.1" d="M163.268 299.67C162.605 297.285 161.204 293.831 160.997 292.891C160.305 289.736 159.803 286.548 159.493 283.341C158.948 277.625 157.964 269.58 160.127 264.144C162.157 265.153 163.942 268.011 164.881 269.96C168.282 277.029 164.453 285.708 167.648 292.859C167.887 293.287 168.036 293.754 168.086 294.235C168.03 294.845 167.795 295.429 167.407 295.923L166.331 297.593L163.268 299.67Z" fill="black"/>
<path d="M234.064 81.4473C237.681 75.9428 242.636 70.5301 242.327 64.0945C242.214 61.801 241.408 59.558 240.793 57.3103C239.032 50.8052 238.916 44.0072 240.454 37.4531C246.533 36.5418 252.754 37.8422 257.836 41.086C259.443 42.1227 260.967 43.4116 261.675 45.1134C262.329 46.6822 262.22 48.4298 262.102 50.1087C261.832 53.9664 261.463 58.0809 258.917 61.1175C258.126 62.0671 257.152 62.8698 256.381 63.8285C255.255 65.2046 254.596 66.8834 253.952 68.521L245.596 89.736C241.378 100.428 236.806 111.612 227.516 119.01C227.29 119.189 220.634 110.368 220.083 109.483C217.857 105.855 218.83 104.323 221.524 101.286C226.838 95.2817 229.723 88.0388 234.064 81.4473Z" fill="#BE6F72"/>
<path d="M138.297 262.272C138.268 263.856 138.126 265.436 137.869 267.002C137.781 267.58 137.677 268.153 137.555 268.726C135.878 276.891 131.705 284.657 128.785 292.611C124.936 303.111 123.245 312.221 121.903 322.647C118.035 322.647 114.161 322.569 110.332 322.381H110.214C108.906 322.317 107.594 322.243 106.281 322.152C107.466 312.427 105.298 302.225 107.417 292.492C108.272 288.574 109.732 284.772 110.612 280.873C110.883 279.725 111.088 278.564 111.226 277.396C111.349 276.286 111.413 275.134 111.949 274.135C111.998 274.038 112.054 273.944 112.116 273.855C112.587 273.163 113.171 272.544 113.846 272.02C119.836 267.119 127.162 263.859 135.013 262.603C136.129 262.461 137.215 262.341 138.297 262.272Z" fill="#FBBEBE"/>
<path opacity="0.1" d="M138.297 262.272C138.268 263.856 138.126 265.436 137.869 267.002C137.781 267.58 137.677 268.153 137.555 268.726C135.878 276.891 131.705 284.657 128.785 292.611C124.936 303.111 123.245 312.221 121.903 322.647C118.035 322.647 114.161 322.569 110.332 322.381H110.214C108.906 322.317 107.594 322.243 106.281 322.152C107.466 312.427 105.298 302.225 107.417 292.492C108.272 288.574 109.732 284.772 110.612 280.873C110.883 279.725 111.088 278.564 111.226 277.396C111.349 276.286 111.413 275.134 111.949 274.135C111.998 274.038 112.054 273.944 112.116 273.855C112.587 273.163 113.171 272.544 113.846 272.02C119.836 267.119 127.162 263.859 135.013 262.603C136.129 262.461 137.215 262.341 138.297 262.272Z" fill="black"/>
<path d="M113.375 283.176C113.295 285.725 113.07 288.268 112.701 290.795C111.389 301.12 111.143 311.895 110.243 322.376C108.936 322.312 107.623 322.239 106.311 322.147C100.333 321.766 94.3755 321.179 88.5062 320.376C88.9585 318.016 89.414 315.655 89.8728 313.294C90.4332 310.4 90.9936 307.478 90.8313 304.542C90.679 301.767 89.8826 299.065 89.2485 296.345C87.8967 290.519 87.1397 284.235 84.9129 278.74C83.7516 275.658 81.898 272.843 79.4762 270.483C88.6881 267.107 97.5412 266.914 107.436 267.272C108.139 267.236 108.837 267.396 109.442 267.731C109.911 268.11 110.259 268.602 110.45 269.153C111.937 272.491 112.87 276.02 113.217 279.621C113.335 280.802 113.388 281.989 113.375 283.176Z" fill="#FBBEBE"/>
<path d="M187.576 107.424C198.164 107.424 206.747 99.4142 206.747 89.5342C206.747 79.6541 198.164 71.6448 187.576 71.6448C176.988 71.6448 168.405 79.6541 168.405 89.5342C168.405 99.4142 176.988 107.424 187.576 107.424Z" fill="#BE6F72"/>
<path d="M191.563 131.345C194.021 127.432 196.174 122.547 200.903 121.46C203.572 120.841 206.349 121.685 208.949 122.515C209.703 122.681 210.387 123.051 210.916 123.579C211.3 124.148 211.506 124.806 211.511 125.478C212.334 133.565 212.306 141.708 211.427 149.789C210.803 155.509 209.751 161.202 209.564 166.949C209.303 174.917 210.709 182.885 210.247 190.843C209.898 196.875 208.483 202.802 207.077 208.696L201.178 233.374C201.072 234.138 200.744 234.86 200.229 235.461C199.732 235.887 199.136 236.201 198.489 236.379C189.951 239.195 180.874 240.31 171.846 239.65C162.818 238.99 154.038 236.571 146.073 232.549C143.945 231.457 141.821 230.195 140.435 228.333C138.469 225.691 138.287 222.196 138.926 219.031C139.565 215.865 140.946 212.879 141.875 209.774C143.311 204.958 143.65 199.93 143.974 194.939C144.407 188.371 144.84 181.761 144.087 175.215C143.571 170.706 142.495 166.266 141.684 161.794C140.489 155.053 139.796 148.243 139.609 141.413C139.486 137.336 139.688 132.808 142.711 129.868C144.186 128.437 146.152 127.574 148.153 126.877C151.51 125.721 155.261 125.042 158.653 126.097C162.044 127.152 164.777 130.473 163.976 133.726C163.608 135.235 162.561 136.556 162.305 138.088C161.966 140.115 163.116 142.157 164.763 143.528C173.621 150.996 187.144 138.427 191.563 131.345Z" fill="#E3E8F4"/>
<path d="M192.266 113.066C194.956 112.141 197.879 111.981 200.667 112.607C202.441 113.001 204.358 113.699 205.995 112.96C206.59 112.694 207.082 112.258 207.681 112.011C209.303 111.346 211.407 112.162 212.843 111.194C213.747 110.584 214.042 109.474 214.347 108.465C215.823 103.648 218.848 99.3697 223.013 96.2083C222.497 99.7266 222.123 103.731 224.616 106.419C225.751 107.639 227.344 108.405 228.956 109.002C231.271 109.859 233.813 110.428 236.256 109.96C238.699 109.492 240.985 107.768 241.373 105.47C241.29 108.924 237.765 111.336 236.777 114.671C236.403 115.919 236.438 117.244 236.177 118.52C235.514 121.776 233.021 124.391 230.844 127.015C223.889 135.454 219.446 145.458 217.965 156.014C217.864 157.267 217.583 158.501 217.129 159.684C216.647 160.591 216.102 161.467 215.497 162.307C211.894 167.986 213.005 175.151 214.229 181.637C216.141 191.797 218.048 201.751 221.145 211.655C221.676 213.347 222.276 215.113 223.628 216.347C223.2 220.352 218.869 222.177 214.976 223.907C211.132 225.617 207.586 227.858 204.457 230.553C203.336 231.516 202.23 232.599 201.822 233.971C201.438 235.259 201.714 236.677 201.222 237.929C200.731 239.181 198.764 240.08 197.899 239.025C196.818 235.25 198.666 231.301 198.582 227.393C198.523 224.755 197.599 222.191 197.467 219.553C197.339 216.567 198.283 213.636 199.285 210.801C202.077 202.907 205.45 195.086 206.418 186.825C207.386 178.564 205.577 169.541 199.295 163.647C191.838 156.619 187.699 147.092 179.706 140.638C178.438 139.615 177.003 138.345 177.214 136.794C177.36 136.112 177.682 135.472 178.153 134.932C180.896 131.317 184.543 128.368 187.493 124.909C190.442 121.451 192.802 117.469 192.266 113.066Z" fill="#3F3D56"/>
<path d="M166.021 120.465C165.53 120.923 165.19 121.556 164.62 121.951C163.954 122.334 163.195 122.554 162.413 122.588C159.52 122.998 156.603 123.242 153.678 123.318C151.22 123.318 148.669 123.116 146.304 123.744C143.006 124.616 140.371 127.047 138.72 129.845C137.068 132.643 136.286 135.808 135.652 138.959C134.254 145.902 133.506 152.945 133.416 160.009C137.467 156.994 141.078 153.497 144.156 149.606C146.516 146.62 148.654 143.317 152.021 141.322C153.57 140.404 155.31 139.799 156.868 138.904C160.117 137.037 162.369 134.019 164.532 131.106C166.124 128.946 170.73 124.726 171.094 122.139C171.404 119.666 167.742 118.46 166.021 120.465Z" fill="#3F3D56"/>
<path d="M183.147 77.2868C183.754 77.627 184.336 78.0056 184.887 78.4198C188.225 80.5941 192.694 80.1904 196.729 79.695C197.968 79.5482 199.241 79.3831 200.303 78.7776C202.009 77.796 202.81 75.7777 202.643 73.9108C202.476 72.0438 201.468 70.3237 200.239 68.865C198.611 66.9347 196.58 65.3329 194.269 64.1565C191.958 62.9801 189.415 62.2537 186.795 62.0212C185.438 61.8552 184.058 61.992 182.769 62.4203C181.181 63.0303 179.987 64.2872 178.522 65.1266C174.201 67.6036 167.545 66.5027 164.758 70.4567C162.718 73.3741 164.173 77.3373 163.209 80.6904C162.492 83.1949 160.422 85.4747 160.82 88.0296C161.042 89.4057 161.966 90.6075 162.703 91.8369C164.396 94.663 165.18 97.8851 164.959 101.116C166.852 102.364 169.492 100.424 170.018 98.3229C170.544 96.2221 169.939 93.9836 170.386 91.8644C171.178 88.1443 174.697 85.415 176.285 82.0023C177.426 79.5574 179.284 75.4291 183.147 77.2868Z" fill="#3F3D56"/>
<path d="M136.665 118.006C136.517 118.841 136.424 119.763 136.92 120.469C137.904 121.845 140.155 121.35 141.925 121.556C144.682 121.873 146.717 124.308 147.253 126.868C147.789 129.428 147.15 132.033 146.452 134.547C144.872 140.244 142.991 145.86 140.809 151.395C134.939 150.748 128.76 148.643 125.644 143.968C122.813 139.716 123.103 134.299 121.303 129.584C120.04 126.263 117.774 123.373 115.532 120.538C119.136 120.96 121.711 117.116 121.923 113.731C122.134 110.346 120.994 106.91 121.77 103.603C121.952 102.818 136.154 105.291 137.535 106.185C141.526 108.768 137.294 114.419 136.665 118.006Z" fill="#FBBEBE"/>
<path opacity="0.1" d="M136.665 118.006C136.517 118.841 136.424 119.763 136.92 120.469C137.904 121.845 140.155 121.35 141.925 121.556C144.682 121.873 146.717 124.308 147.253 126.868C147.789 129.428 147.15 132.033 146.452 134.547C144.872 140.244 142.991 145.86 140.809 151.395C134.939 150.748 128.76 148.643 125.644 143.968C122.813 139.716 123.103 134.299 121.303 129.584C120.04 126.263 117.774 123.373 115.532 120.538C119.136 120.96 121.711 117.116 121.923 113.731C122.134 110.346 120.994 106.91 121.77 103.603C121.952 102.818 136.154 105.291 137.535 106.185C141.526 108.768 137.294 114.419 136.665 118.006Z" fill="black"/>
<path d="M133.504 112.469C144.092 112.469 152.675 104.46 152.675 94.5799C152.675 84.6999 144.092 76.6905 133.504 76.6905C122.916 76.6905 114.333 84.6999 114.333 94.5799C114.333 104.46 122.916 112.469 133.504 112.469Z" fill="#FBBEBE"/>
<path d="M127.6 115.437C128.298 114.419 127.109 112.997 127.655 111.901C127.979 111.24 128.8 110.956 129.434 110.524C130.229 109.92 130.864 109.153 131.287 108.281C134.272 102.93 135.175 96.7774 133.843 90.8736C133.391 88.892 132.988 86.2591 134.93 85.3692C135.468 85.145 136.058 85.0504 136.645 85.0939C140.145 85.1994 143.527 87.3875 146.924 86.6122C148.083 86.3181 149.119 85.7006 149.892 84.8423C150.665 83.984 151.139 82.926 151.25 81.8096C151.471 78.8464 149.092 76.3052 146.752 74.3098C142.539 70.6953 136.119 69.8925 130.397 69.8054L119.755 69.6402C116.349 69.5852 112.529 69.6861 110.16 71.9659C106.748 75.2456 108.464 80.6124 107.972 85.1582C107.554 88.7862 105.609 92.1109 102.565 94.401C100.358 96.0432 97.3201 97.6119 97.3594 100.236C97.3594 101.153 97.7821 101.988 98.0525 102.855C99.1389 106.286 98.1017 110.079 96.0174 113.084C93.9332 116.088 90.8855 118.4 87.7247 120.423C86.0337 121.501 84.2838 122.538 82.9467 124.001C81.4809 125.691 80.6104 127.763 80.4545 129.932C80.2441 131.59 80.6094 133.267 81.4966 134.716C83.5759 137.817 88.5653 138.271 91.9817 136.473C95.398 134.675 97.4823 131.272 98.8636 127.85C99.6894 125.818 100.53 123.492 102.644 122.579C105.318 121.419 108.444 123.253 110.184 125.478C111.924 127.703 112.996 130.418 115.223 132.226C118.713 135.06 124.651 134.602 127.6 131.272C129.709 128.882 130.176 125.574 130.058 122.478C130 119.957 129.145 117.507 127.6 115.437Z" fill="#3F3D56"/>
<path d="M134.482 138.753C132.295 139.189 130.009 138.225 128.382 136.785C126.755 135.345 125.659 133.487 124.518 131.689C121.627 127.153 118.312 122.865 114.613 118.873C111.389 115.4 106.901 111.873 102.113 112.946C100.51 113.378 99.0223 114.121 97.7477 115.125C93.5262 118.244 90.2218 122.312 88.1439 126.947C86.066 131.583 85.2824 136.634 85.8666 141.629C86.2402 144.551 87.0906 147.409 87.4445 150.344C87.6829 152.764 87.7519 155.196 87.651 157.624C87.5182 165.018 87.2479 172.839 82.9762 179.068C76.3548 188.701 72.8106 200.205 67.949 210.719C65.3241 216.402 63.7511 222.452 62.2076 228.471C61.2933 232.042 60.3806 235.613 59.4695 239.181L53.5216 262.529C52.9072 264.938 52.2927 267.46 52.9416 269.869C53.9247 273.465 57.5475 275.978 61.367 277.001C65.1864 278.024 69.232 277.85 73.199 277.882C80.7887 277.951 88.4375 278.832 95.5602 281.29C97.5953 281.992 99.6255 282.831 101.793 282.997C103.961 283.162 106.119 282.634 108.149 281.9C113.689 279.9 118.438 276.396 123.54 273.566C126.727 271.773 130.084 270.258 133.568 269.038C135.318 268.428 137.196 267.85 138.4 266.515C139.31 265.511 139.718 264.199 140.017 262.915C141.679 255.685 140.563 248.195 140.017 240.819C139.472 233.443 134.748 225.65 138.656 219.219C139.442 217.92 140.381 216.673 140.784 215.232C141.315 213.352 140.868 211.329 141.315 209.43C141.644 208.026 142.436 206.765 142.977 205.421C143.92 203.054 144.048 200.476 144.038 197.949C144.016 192.399 143.39 186.867 142.17 181.435C140.622 174.555 145.744 167.752 148.679 161.252C149.731 158.927 151.22 156.73 151.658 154.239C152.051 151.991 151.545 149.702 151.166 147.45C150.601 143.959 150.371 140.429 150.478 136.9C150.571 133.735 150.93 130.51 150.119 127.432C149.308 124.354 146.993 121.368 143.665 120.735C143.292 120.633 142.899 120.609 142.515 120.666C142.131 120.722 141.765 120.857 141.443 121.061C141.059 121.412 140.788 121.857 140.661 122.345C139.58 125.437 139.791 128.767 139.187 131.978C138.582 135.189 137.874 138.074 134.482 138.753Z" fill="#F86D70"/>
<path d="M88.0934 158.454C88.2949 157.184 87.6608 155.496 86.2844 155.542C85.0162 155.587 84.4509 157.069 84.4558 158.257C84.4607 159.445 84.6328 160.807 83.7332 161.642C82.9369 162.381 81.6195 162.358 80.6953 162.959C80.3692 163.176 80.1038 163.463 79.9215 163.796C79.7393 164.129 79.6456 164.498 79.6483 164.872C79.6483 165.509 79.958 166.119 79.9776 166.757C79.9973 167.394 79.5402 168.133 78.8618 168.092C78.5134 168.637 78.3683 169.275 78.4492 169.906C78.5302 170.536 78.8325 171.124 79.3091 171.578C79.663 171.899 80.1251 172.174 80.2431 172.624C80.2805 172.939 80.2538 173.258 80.1644 173.564C79.958 174.825 80.892 176.238 82.2536 176.376C81.4917 176.885 81.644 178.078 82.3421 178.669C83.0401 179.261 84.0429 179.376 84.9818 179.376C87.1127 179.365 89.2199 178.958 91.1804 178.179C91.8517 177.972 92.4454 177.59 92.891 177.078C93.0978 176.814 93.197 176.489 93.1709 176.163C93.1448 175.837 92.995 175.53 92.7485 175.298C93.7021 175.445 94.8475 175.527 95.4718 174.839C96.3418 173.876 95.4079 172.449 94.4886 171.518C94.8699 171.465 95.226 171.309 95.5129 171.069C95.7997 170.829 96.0046 170.515 96.102 170.167C96.1994 169.819 96.1851 169.452 96.0608 169.112C95.9365 168.771 95.7078 168.472 95.4029 168.252C95.0883 168.037 94.6607 167.849 94.6164 167.486C94.5722 167.124 94.9015 166.89 95.0392 166.569C95.3538 165.849 94.6361 165.115 93.943 164.679C92.3012 163.661 89.8827 163.679 88.4227 162.651C86.9628 161.624 87.882 159.83 88.0934 158.454Z" fill="#BE6F72"/>
<path d="M189.503 88.8507C188.313 88.9627 187.115 88.9887 185.92 88.9287C185.716 88.9079 185.512 88.9626 185.351 89.081C185.19 89.1994 185.085 89.372 185.06 89.5617L182.774 105.561C182.598 106.723 182.088 107.818 181.299 108.731C180.648 109.457 180.165 110.301 179.878 111.209C179.591 112.117 179.508 113.071 179.633 114.011V141.189C179.633 141.189 179.485 144.812 182.469 144.812C186.04 145.231 189.653 145.231 193.224 144.812C193.224 144.812 195.613 144.39 195.613 141.046V114.286C195.796 113.352 195.758 112.393 195.504 111.474C195.249 110.555 194.783 109.699 194.139 108.965C193.376 108.049 192.883 106.962 192.708 105.814L190.334 89.4791C190.307 89.2955 190.206 89.1283 190.052 89.0116C189.898 88.8949 189.701 88.8374 189.503 88.8507Z" fill="#3F3D56"/>
<path opacity="0.1" d="M189.503 88.8507C188.313 88.9627 187.115 88.9887 185.92 88.9287C185.716 88.9079 185.512 88.9626 185.351 89.081C185.19 89.1994 185.085 89.372 185.06 89.5617L182.774 105.561C182.598 106.723 182.088 107.818 181.299 108.731C180.648 109.457 180.165 110.301 179.878 111.209C179.591 112.117 179.508 113.071 179.633 114.011V141.189C179.633 141.189 179.485 144.812 182.469 144.812C186.04 145.231 189.653 145.231 193.224 144.812C193.224 144.812 195.613 144.39 195.613 141.046V114.286C195.796 113.352 195.758 112.393 195.504 111.474C195.249 110.555 194.783 109.699 194.139 108.965C193.376 108.049 192.883 106.962 192.708 105.814L190.334 89.4791C190.307 89.2955 190.206 89.1283 190.052 89.0116C189.898 88.8949 189.701 88.8374 189.503 88.8507Z" fill="black"/>
<path d="M189.518 114.497H185.895C182.895 114.497 180.463 116.766 180.463 119.565V132.285C180.463 135.085 182.895 137.354 185.895 137.354H189.518C192.518 137.354 194.95 135.085 194.95 132.285V119.565C194.95 116.766 192.518 114.497 189.518 114.497Z" fill="#FFD700"/>
<path d="M238.203 19.715C237.152 20.2539 236.057 20.714 234.929 21.0911C234.733 21.1456 234.568 21.2689 234.468 21.4349C234.368 21.601 234.341 21.7968 234.393 21.981L238.886 37.5769C239.207 38.7089 239.194 39.901 238.846 41.0264C238.544 41.9304 238.444 42.8831 238.554 43.8248C238.664 44.7664 238.981 45.6767 239.486 46.4987L250.703 71.5806C250.703 71.5806 252.06 74.975 254.817 73.9016C258.289 73.0029 261.625 71.6991 264.747 70.021C264.747 70.021 266.777 68.7733 265.401 65.6908L254.355 40.9943C254.138 40.067 253.708 39.1948 253.094 38.4377C252.48 37.6806 251.698 37.0567 250.801 36.6091C249.72 36.0382 248.817 35.2146 248.181 34.2192L239.25 19.9994C239.148 19.8349 238.983 19.7134 238.787 19.6604C238.592 19.6074 238.383 19.627 238.203 19.715Z" fill="#3F3D56"/>
<path d="M248.809 43.3825L245.465 44.6844C242.697 45.7624 241.389 48.7306 242.544 51.3141L247.794 63.0529C248.949 65.6363 252.13 66.8567 254.898 65.7787L258.242 64.4768C261.01 63.3988 262.318 60.4306 261.163 57.8471L255.913 46.1083C254.758 43.5249 251.577 42.3045 248.809 43.3825Z" fill="#FFD700"/>
<path d="M100.255 115.91C94.9704 117.942 92.8813 124.263 94.12 129.464C95.3587 134.666 99.0897 139.001 102.727 143.124L112.922 154.73C115.739 157.941 118.821 161.321 123.117 162.44C129.4 164.078 135.682 160.344 141.114 156.968C157.327 146.886 174.658 138.465 192.807 131.85C194.581 131.207 196.4 130.556 197.86 129.409C200.888 127.033 201.738 122.653 200.052 119.318C198.366 115.983 194.439 113.813 190.481 113.786C186.524 113.758 182.675 115.712 180.296 118.666C179.161 120.075 178.33 121.685 177.234 123.116C174.461 126.712 170.136 128.937 165.903 130.946C155.698 135.804 145.193 140.093 134.443 143.79C132.477 144.459 130.26 145.097 128.407 144.212C127.271 143.666 126.504 142.634 125.816 141.624C122.68 137.018 120.186 132.058 118.393 126.863C117.051 122.964 115.965 118.717 112.74 115.946C108.169 112.02 99.891 112.96 96.4648 117.781C96.4648 117.781 92.4487 123.263 94.9065 125.556C97.3643 127.85 100.255 115.91 100.255 115.91Z" fill="#FBBEBE"/>
<path d="M375.944 96.9285C376.662 98.7128 376.681 100.667 376.578 102.571C376.45 104.892 375.826 107.616 373.516 108.502C372.011 109.066 370.153 108.639 368.816 109.492C367.194 110.52 367.273 112.731 367.524 114.538C368.217 119.506 368.998 124.657 371.898 128.859C373.457 131.111 375.565 132.987 377.704 134.781C381.966 138.368 386.64 141.872 392.239 143.069C393.151 143.309 394.111 143.347 395.041 143.179C395.959 142.915 396.791 142.442 397.465 141.803C400.709 139.024 402.38 135.056 404.543 131.46C406.072 128.886 407.896 126.414 408.756 123.579C409.464 121.102 409.417 118.49 408.62 116.037C407.823 113.583 406.307 111.387 404.243 109.694C403.285 108.928 402.223 108.286 401.294 107.492C398.866 105.437 397.45 102.488 396.87 99.4789C396.29 96.4698 396.378 93.3735 396.659 90.3048C391.743 89.9516 386.862 90.5066 382.064 91.4011C379.931 91.8002 376.927 91.9837 374.995 92.9332C372.823 94.0111 375.349 95.3918 375.944 96.9285Z" fill="#FBBEBE"/>
<path opacity="0.1" d="M375.944 96.9285C376.662 98.7128 376.681 100.667 376.578 102.571C376.45 104.892 375.826 107.616 373.516 108.502C372.011 109.066 370.153 108.639 368.816 109.492C367.194 110.52 367.273 112.731 367.524 114.538C368.217 119.506 368.998 124.657 371.898 128.859C373.457 131.111 375.565 132.987 377.704 134.781C381.966 138.368 386.64 141.872 392.239 143.069C393.151 143.309 394.111 143.347 395.041 143.179C395.959 142.915 396.791 142.442 397.465 141.803C400.709 139.024 402.38 135.056 404.543 131.46C406.072 128.886 407.896 126.414 408.756 123.579C409.464 121.102 409.417 118.49 408.62 116.037C407.823 113.583 406.307 111.387 404.243 109.694C403.285 108.928 402.223 108.286 401.294 107.492C398.866 105.437 397.45 102.488 396.87 99.4789C396.29 96.4698 396.378 93.3735 396.659 90.3048C391.743 89.9516 386.862 90.5066 382.064 91.4011C379.931 91.8002 376.927 91.9837 374.995 92.9332C372.823 94.0111 375.349 95.3918 375.944 96.9285Z" fill="black"/>
<path d="M348.515 110.428C340.532 107.873 336.717 97.8918 328.36 96.7725C327.043 96.5936 325.691 96.6624 324.398 96.378C319.586 95.3138 317.517 90.1213 316.125 85.6948C311.436 70.9384 305.311 56.4984 296.61 43.4162C292.938 37.9118 287.133 33.389 284.483 27.3616C283.874 25.9855 283.564 24.4167 282.468 23.3296C281.372 22.2425 279.027 22.0865 278.432 23.4718C278.266 23.9625 278.229 24.4832 278.324 24.9901L278.899 30.701L268.901 29.8615C267.976 29.7144 267.027 29.7773 266.133 30.045C265.169 30.4955 264.4 31.2422 263.956 32.1596C260.574 38.0907 264.177 45.8611 270.144 49.6133C277.115 53.9939 287.069 54.659 291.7 61.1955C294.452 65.0853 294.506 70.0898 296.32 74.4337C297.185 76.5116 298.449 78.4198 299.456 80.4335C301.378 84.2729 302.362 88.4471 303.851 92.447C305.984 98.167 309.145 103.497 312.296 108.795C314.724 112.887 317.212 117.052 320.948 120.18C323.406 122.235 326.296 123.758 329.186 125.226C336.294 128.85 344.676 132.336 352.206 129.556C352.639 123.29 350.953 116.304 348.515 110.428Z" fill="#FBBEBE"/>
<path d="M372.754 307.89C372.149 313.877 368.256 319.298 367.347 325.06C361.349 324.184 355.446 323.055 349.734 321.771C349.031 321.615 348.333 321.454 347.63 321.312C350.864 313.055 348.048 303.808 348.903 295.015C348.987 294.171 349.105 293.327 349.262 292.492C356.67 290.134 363.36 286.987 371.127 287.905C371.279 289.373 371.436 290.845 371.589 292.313C371.9 295.246 372.208 298.175 372.513 301.102C372.825 303.352 372.905 305.626 372.754 307.89Z" fill="#FBBEBE"/>
<path d="M423.985 322.863C421.075 323.688 418.086 324.408 414.964 325C414.443 325.101 413.917 325.197 413.391 325.289C410.196 325.849 406.962 326.257 403.693 326.537C403.359 320.161 398.777 314.299 398.109 307.753C397.972 306.126 397.99 304.491 398.163 302.868C398.222 302.226 398.29 301.583 398.354 300.941L399.741 287.744C400.844 287.615 401.957 287.564 403.069 287.593C409.459 287.735 415.274 290.318 421.605 292.331C422.077 295.115 422.242 297.937 422.097 300.753C421.856 307.918 420.622 315.17 423.473 321.743C423.636 322.115 423.813 322.486 423.985 322.863Z" fill="#FBBEBE"/>
<path d="M341.009 222.251C341.869 228.507 338.443 234.498 336.958 240.649C335.975 244.718 335.842 248.906 335.709 253.08L334.933 278.084C334.854 280.584 334.785 283.13 335.601 285.529C337.243 290.336 342.301 293.583 347.566 294.739C352.831 295.895 358.336 295.308 363.699 294.648C366.329 294.322 369.072 293.941 371.25 292.524C374.243 290.574 375.551 287.102 376.681 283.864L379.872 274.722C383.544 282.437 381.99 290.873 384.192 299.06C384.334 299.817 384.671 300.531 385.176 301.138C386.105 302.102 387.633 302.253 389.025 302.345C398.659 302.978 408.427 303.606 417.904 301.886C420.509 301.427 423.228 300.684 425.027 298.859C427.121 296.735 427.485 293.611 427.46 290.726C427.327 280.813 423.488 271.249 422.633 261.369C422.264 257.135 422.446 252.878 422.284 248.631C422.156 245.436 421.836 242.251 421.325 239.09C421.163 237.642 420.737 236.23 420.067 234.915C418.592 232.347 415.53 230.952 412.63 229.87C390.096 221.329 365.312 221.411 341.009 222.251Z" fill="#F86D70"/>
<path d="M382.728 99.167C394.401 99.167 403.865 90.3361 403.865 79.4427C403.865 68.5493 394.401 59.7185 382.728 59.7185C371.054 59.7185 361.59 68.5493 361.59 79.4427C361.59 90.3361 371.054 99.167 382.728 99.167Z" fill="#FBBEBE"/>
<path d="M401.151 114.185C399.583 117.396 397.116 120.607 393.444 121.423C390.067 122.18 386.488 120.662 384.001 118.4C381.513 116.139 379.886 113.203 378.161 110.391C376.902 108.336 375.502 106.263 373.373 104.97C370.463 103.208 366.707 103.254 363.276 103.772C359.845 104.291 356.439 105.217 352.953 105.006C348.613 104.736 344.189 102.713 340.094 104.061C341.421 109.602 340.945 115.694 340.792 121.373C340.818 122.25 340.685 123.124 340.399 123.96C340.041 124.739 339.559 125.463 338.968 126.107L335.036 130.836C339.254 133.781 342.901 137.625 344.376 142.345C345.206 145.033 344.951 147.886 344.921 150.684C344.828 158.899 346.74 167.082 346.135 175.279C345.428 184.88 341.318 193.953 339.199 203.37C337.385 211.455 337.042 219.766 338.187 227.957C360.219 235.071 382.919 238.713 406.21 239.906C410.324 240.117 414.768 240.149 418.145 237.943C420.952 236.108 422.525 232.966 423.06 229.801C423.596 226.636 423.228 223.416 422.854 220.232C421.841 211.624 420.83 203.016 419.821 194.407C419.246 189.508 418.671 184.582 419.044 179.669C419.325 176 420.131 172.399 420.932 168.807L425.848 146.762C426.551 143.629 427.258 140.473 428.65 137.551C429.79 135.166 431.368 132.964 432.626 130.643C434.126 127.86 435.161 124.879 435.694 121.804C435.907 120.911 435.894 119.984 435.654 119.098C435.128 117.593 433.521 116.689 432.022 115.951C422.879 111.467 413.081 108.261 402.941 106.433C402.253 109.135 402.385 111.667 401.151 114.185Z" fill="#E3E8F4"/>
<path d="M399.111 100.974C401.569 96.5799 406.165 93.4974 408.835 89.2039C410.31 86.7698 411.135 84.0398 411.239 81.2451C411.343 78.4504 410.724 75.6734 409.434 73.1493C408.495 71.3604 407.222 69.7182 406.485 67.8467C405.664 65.7183 405.585 63.3744 404.637 61.2919C403.334 58.4387 400.512 56.3837 397.44 55.2003C394.368 54.0168 391.05 53.5902 387.741 53.1774L376.573 51.7738C374.956 51.5719 373.28 51.3701 371.707 51.7738C370.134 52.1774 368.669 53.3747 368.541 54.8975C368.389 56.7002 370.084 58.3791 369.691 60.1497C369.549 60.7735 369.155 61.4065 369.382 62.012C369.583 62.4165 369.931 62.7415 370.365 62.9294C373.014 64.3055 376.18 64.4294 379.051 65.3284C381.921 66.2275 384.802 68.4843 384.512 71.2916C384.355 72.8007 383.312 74.3695 384.02 75.7227C384.699 76.9749 386.478 77.2043 387.899 77.5942C392.495 78.8372 395.72 83.4885 395.051 87.915C394.845 89.2911 394.314 90.6076 394.206 91.9882C393.847 96.823 394.663 98.2037 398.895 101.016L399.111 100.974Z" fill="#3F3D56"/>
<path d="M427.824 121.882C427.846 122.798 427.667 123.708 427.298 124.556C425.764 127.607 421.07 127.414 417.958 129.143C414.084 131.299 413.229 136.111 412.875 140.303C412.472 145.051 412.197 149.867 413.239 154.523C414.281 159.179 416.788 163.72 420.976 166.449C426.074 169.757 433.005 169.871 438.825 167.858C444.645 165.844 449.507 161.95 453.724 157.693C457.726 153.656 461.309 149.156 463.457 144.033C463.836 143.115 464.17 142.143 463.865 141.225C463.408 139.849 461.801 139.225 460.493 138.473C457.441 136.753 455.405 133.753 454.349 130.583C453.292 127.414 453.115 124.042 453.08 120.717C453.041 117.263 453.031 113.488 450.672 110.823C448.312 108.158 444.222 107.41 440.496 107.437C437.449 107.437 429.013 107.708 426.934 110.19C425.228 112.254 427.947 118.928 427.824 121.882Z" fill="#BE6F72"/>
<path opacity="0.1" d="M427.824 121.882C427.846 122.798 427.667 123.708 427.298 124.556C425.764 127.607 421.07 127.414 417.958 129.143C414.084 131.299 413.229 136.111 412.875 140.303C412.472 145.051 412.197 149.867 413.239 154.523C414.281 159.179 416.788 163.72 420.976 166.449C426.074 169.757 433.005 169.871 438.825 167.858C444.645 165.844 449.507 161.95 453.724 157.693C457.726 153.656 461.309 149.156 463.457 144.033C463.836 143.115 464.17 142.143 463.865 141.225C463.408 139.849 461.801 139.225 460.493 138.473C457.441 136.753 455.405 133.753 454.349 130.583C453.292 127.414 453.115 124.042 453.08 120.717C453.041 117.263 453.031 113.488 450.672 110.823C448.312 108.158 444.222 107.41 440.496 107.437C437.449 107.437 429.013 107.708 426.934 110.19C425.228 112.254 427.947 118.928 427.824 121.882Z" fill="black"/>
<path d="M401.613 244.897C401.766 245.596 402.119 246.243 402.636 246.768C403.121 247.126 403.688 247.375 404.293 247.498C420.426 251.915 437.66 250.154 454.363 248.351C452.078 241.856 449.777 235.287 449.143 228.475C448.617 222.856 449.207 217.008 447.073 211.737C446.444 210.178 409.773 217.356 406.156 217.939C404.302 218.237 402.169 218.136 400.856 219.508C399.274 221.168 399.141 225.122 398.974 227.191C398.502 233.168 399.824 239.186 401.613 244.897Z" fill="#BE6F72"/>
<path d="M438.348 317.711C435.399 318.986 432.356 320.175 429.205 321.239C427.501 321.817 425.761 322.358 423.985 322.862C421.075 323.688 418.086 324.408 414.964 325C413.185 320.789 411.404 316.577 409.621 312.363C408.309 309.262 406.996 306.147 405.9 302.978C405.137 300.813 404.51 298.609 404.022 296.377C402.413 288.789 402.832 280.948 405.241 273.547C412.054 274.745 418.715 275.524 425.425 276.433C429.008 276.891 432.602 277.433 436.239 278.07C436.524 280.281 436.783 282.492 437.016 284.703C437.37 288.116 437.66 291.529 437.886 294.941C438.387 302.525 438.541 310.115 438.348 317.711Z" fill="#BE6F72"/>
<path opacity="0.1" d="M438.348 317.711C435.399 318.986 432.356 320.175 429.205 321.239C427.501 321.817 425.761 322.358 423.985 322.862C421.075 323.688 418.086 324.408 414.964 325C413.185 320.789 411.404 316.577 409.621 312.363C408.309 309.262 406.996 306.147 405.9 302.978C405.137 300.813 404.51 298.609 404.022 296.377C402.413 288.789 402.832 280.948 405.241 273.547C412.054 274.745 418.715 275.524 425.425 276.433C429.008 276.891 432.602 277.433 436.239 278.07C436.524 280.281 436.783 282.492 437.016 284.703C437.37 288.116 437.66 291.529 437.886 294.941C438.387 302.525 438.541 310.115 438.348 317.711Z" fill="black"/>
<path d="M476.15 297.836C476.189 300.478 475.383 303.175 474.635 305.767C474.581 305.95 474.532 306.129 474.483 306.313C472.705 305.796 471.172 304.724 470.143 303.276C469.611 302.491 469.217 301.631 468.978 300.73C466.752 302.143 464.508 303.542 462.243 304.927C454.835 309.468 447.005 313.977 438.348 317.711C435.399 318.986 432.356 320.175 429.205 321.239C428.55 319.098 427.927 316.944 427.337 314.776C426.692 312.543 426.187 310.278 425.823 307.991C425.103 302.797 425.661 297.519 427.455 292.556L427.676 291.96C428.511 289.753 429.591 287.633 430.896 285.634C432.12 283.799 434.543 284.107 437.016 284.717C438.137 284.987 439.272 285.313 440.305 285.515C446.729 286.772 453.4 285.474 459.967 285.818C463.097 285.963 466.164 286.692 468.987 287.96C472.148 289.441 474.694 291.707 475.692 294.84C475.834 295.292 475.943 295.751 476.017 296.216C476.1 296.753 476.144 297.294 476.15 297.836Z" fill="#BE6F72"/>
<path d="M357.889 86.5802C347.738 77.4061 336.201 69.6311 324.398 62.3606C321.327 60.5633 318.373 58.5982 315.55 56.4755C312.601 54.182 310.03 51.4894 306.899 49.4252C303.767 47.3611 299.894 45.9437 296.133 46.6225C292.373 47.3014 289.03 50.6591 289.581 54.1728C290.072 57.2645 293.051 59.3837 295.804 61.1588C301.015 64.5211 306.25 67.8926 311.918 70.5301C313.887 71.363 315.796 72.3129 317.635 73.3741C321.164 75.5942 323.735 78.8785 326.404 81.9656C336.479 93.6429 348.819 103.446 362.78 110.864C362.947 110.956 368.762 99.2449 368.516 97.7266C367.976 94.2359 360.563 89.0021 357.889 86.5802Z" fill="#BE6F72"/>
<path d="M444.709 234.814C436.873 235.273 429.357 237.741 421.694 239.314C414.03 240.888 405.703 241.498 398.59 238.397L402.916 265.96C403.157 267.492 403.408 269.061 403.049 270.57C402.719 272.011 401.864 273.368 401.938 274.841C402.051 277.171 404.396 278.809 406.603 279.887C413.015 283.046 420.198 284.59 427.445 284.368C426.909 286.386 426.241 288.382 425.7 290.4C429.313 294.019 435.222 294.262 440.378 295.409C444.311 296.276 447.997 297.781 451.851 298.84C456.512 300.124 461.351 300.753 466.21 300.707C469.489 300.675 472.964 300.248 475.51 298.34C478.642 295.987 479.615 291.987 480.293 288.29C480.672 286.226 481.021 284.134 480.785 282.052C480.529 279.657 479.536 277.391 478.553 275.171L471.819 259.919C470.595 257.167 469.361 254.374 467.886 251.718C463.069 243.126 455.076 234.214 444.709 234.814Z" fill="#3F3D56"/>
<path d="M450.706 139.579C451.288 138.152 452.362 136.946 453.76 136.151C455.157 135.356 456.798 135.018 458.424 135.189C460.39 135.446 462.145 136.45 463.831 137.432L473.22 142.9C474.776 143.764 476.268 144.723 477.688 145.771C484.162 150.78 486.659 159.014 487.372 166.835C488.085 174.656 487.372 182.61 489.038 190.302C485.076 193.366 480.682 195.958 476.72 199.017C474.645 200.618 472.546 202.228 470.973 204.288C469.725 205.907 468.835 207.76 467.532 209.334C465.4 211.82 462.305 213.425 458.915 213.801C461.063 214.966 462.268 217.228 462.848 219.48C463.428 221.732 463.585 224.067 464.229 226.319C465.114 229.379 466.948 232.172 467.552 235.292C467.975 237.443 467.788 239.649 467.94 241.833C468.707 253.131 478.209 263.006 477.595 274.309C473.11 272.788 468.867 270.706 464.981 268.121C463.231 266.951 461.54 265.685 459.884 264.424L447.364 254.952C441.273 250.365 435.124 245.677 430.282 239.915C427.244 236.301 424.766 232.301 421.719 228.695C418.671 225.09 414.92 221.815 410.265 220.301C409.582 221.26 408.368 221.925 407.684 222.884C407.564 223.035 407.468 223.202 407.399 223.379C407.316 223.807 407.373 224.248 407.562 224.645C408.111 226.5 408.44 228.406 408.545 230.328L408.854 233.778C408.97 234.692 408.97 235.616 408.854 236.53C408.387 239.48 405.458 241.768 402.297 242.227C401.84 242.319 401.365 242.305 400.916 242.186C400.036 241.911 399.549 241.044 399.284 240.218C398.04 236.301 399.947 232.168 400.1 228.09C400.121 227.055 400.083 226.02 399.986 224.989L399.692 220.92C396.836 220.365 395.194 217.503 394.437 214.875C392.392 207.779 390.332 200.435 391.517 193.169C391.831 191.224 392.382 189.252 392.008 187.307C391.517 184.706 389.511 182.596 388.454 180.146C385.013 172.16 392.323 163.491 391.645 154.918C391.36 151.317 388.912 148.189 387.437 144.849C386.674 142.903 385.685 141.04 384.487 139.294C382.983 137.29 380.953 135.684 378.982 134.07C372.894 129.085 367.12 123.777 361.689 118.171C358.899 117.901 356.282 116.782 354.241 114.988C352.944 113.841 351.877 112.327 351.843 110.662C351.808 108.997 353.126 107.249 354.91 107.162C355.952 107.112 356.925 107.593 357.943 107.804C361.128 108.456 364.333 106.268 365.754 103.52C367.174 100.772 367.175 97.6119 367.15 94.5662C368.707 94.3083 370.308 94.429 371.8 94.9167C373.292 95.4044 374.625 96.2426 375.669 97.3505C377.866 99.5798 379.296 102.36 381.027 104.919C381.731 106.056 382.635 107.075 383.701 107.933C386.065 109.685 389.472 110.015 391.536 112.061C392.584 113.107 393.164 114.492 394.122 115.611C396.816 118.763 401.746 119.148 405.428 121.221C409.11 123.295 411.671 127.084 415.751 128.313C417.226 128.772 418.833 128.831 420.293 129.34C423.665 130.51 425.725 133.854 426.192 137.18C426.659 140.505 425.862 143.868 425.056 147.143L423.164 154.808C422.746 156.505 422.426 158.546 423.768 159.757C424.403 160.247 425.147 160.596 425.946 160.78C429.387 161.826 433.221 162.853 436.456 161.372C437.984 160.665 439.184 159.473 440.28 158.252C445.078 152.977 448.268 146.069 450.706 139.579Z" fill="#FFD700"/>
<path d="M489.505 295.561C488.827 299.758 486.349 303.886 482.294 305.808C479.862 306.927 477.057 307.108 474.483 306.313C472.705 305.796 471.172 304.724 470.143 303.276C469.611 302.491 469.217 301.631 468.978 300.73C468.978 300.684 468.953 300.634 468.943 300.588C468.574 298.965 468.42 297.306 468.486 295.648C468.485 293.074 468.649 290.502 468.978 287.946C469.252 285.794 469.705 283.665 470.334 281.579C471.249 278.602 472.566 275.735 473.775 272.864C474.404 271.35 475.009 269.832 475.506 268.277C475.805 267.359 476.061 266.415 476.267 265.46L476.341 265.116C476.381 264.924 476.415 264.731 476.449 264.538C476.941 261.924 477.084 259.218 478.347 256.855C481.296 251.309 487.038 252.727 487.913 257.841C487.979 258.238 488.017 258.638 488.026 259.039C488.158 265.511 485.406 271.836 486.664 278.332C487.019 279.916 487.465 281.481 488.001 283.02C488.444 284.437 488.842 285.873 489.146 287.327C489.764 290.033 489.885 292.817 489.505 295.561Z" fill="#BE6F72"/>
<path d="M492.209 223.59C492.342 226.241 492.209 228.925 492.779 231.526C494.111 237.672 499.17 243.112 498.609 249.36C498.472 250.883 497.867 252.52 496.441 253.273C495.016 254.025 492.656 253.965 492.189 255.479C492.057 255.901 492.125 256.36 491.978 256.777C491.668 257.667 490.503 258.048 489.52 258.025C488.537 258.002 487.554 257.699 486.536 257.777C482.972 258.057 481.665 262.506 478.489 264.034C476.351 265.061 473.574 264.493 471.809 262.974C470.044 261.456 469.272 259.089 469.41 256.846C469.513 255.153 470.088 253.52 470.393 251.851C470.949 248.874 470.659 245.823 470.369 242.814C469.941 238.406 469.499 233.943 467.945 229.764C467.213 227.792 466.24 225.906 465.605 223.907C464.701 221.076 464.494 218.099 464.401 215.15C464.209 208.944 464.667 202.306 468.638 197.316C471.622 193.573 475.899 190.531 479.276 187.068C481.39 184.898 481.999 184.22 484.334 186.059C486.256 187.568 488.267 189.651 488.483 191.696C489.073 196.939 488.483 202.095 489.535 207.435C490.587 212.774 491.934 218.109 492.209 223.59Z" fill="#FFD700"/>
<path d="M441.224 122.561C455.07 122.561 466.294 112.087 466.294 99.1669C466.294 86.2469 455.07 75.7731 441.224 75.7731C427.378 75.7731 416.154 86.2469 416.154 99.1669C416.154 112.087 427.378 122.561 441.224 122.561Z" fill="#BE6F72"/>
<path d="M464.18 143.918C464.73 143.198 465.384 142.423 466.318 142.271C467.023 142.222 467.729 142.36 468.353 142.67L474.955 145.244C476.739 142.494 477.791 139.386 478.022 136.18C478.16 134.212 477.993 132.216 478.396 130.281C478.996 127.409 480.819 124.836 481.242 121.937C481.576 119.598 480.972 117.244 480.608 114.91C479.487 107.699 480.692 100.341 480.048 93.08C479.404 85.8187 476.282 78.0391 469.341 74.7043C467.375 73.7869 465.256 73.2365 463.212 72.5117C458.655 70.8925 454.57 68.3008 450.067 66.5486C445.564 64.7963 440.275 63.9936 435.91 66.0073C431.545 68.021 429.004 73.686 431.84 77.3832C432.774 78.5987 434.14 79.4611 435.448 80.3372C438.107 82.1124 440.821 84.305 441.435 87.3049C442.536 92.7038 436.52 96.9376 434.824 102.217C434.198 104.279 434.142 106.455 434.661 108.543C435.394 111.671 437.183 114.625 437.119 117.827C437.07 121.336 434.819 124.515 434.396 128.006C434.244 129.285 434.337 130.583 434.165 131.859C433.862 133.541 433.328 135.18 432.577 136.735C428.645 145.909 424.658 155.179 418.813 163.427C425.071 163.526 431.257 162.177 436.819 159.5C436.02 163.036 434.489 166.392 432.312 169.381C437.313 168.84 442.124 167.274 446.4 164.794C445.363 168.26 443.86 171.591 441.927 174.706C442.094 174.44 445.186 173.789 445.756 173.486C446.928 172.864 447.871 171.925 448.46 170.793C450.131 168.004 451.173 164.642 452.722 161.743C456.032 155.529 459.864 149.569 464.18 143.918Z" fill="#3F3D56"/>
<path d="M274.052 3.53201C272.862 3.64394 271.664 3.67001 270.469 3.60999C270.265 3.58922 270.061 3.64393 269.9 3.76232C269.739 3.88071 269.634 4.05333 269.609 4.243L267.323 20.2426C267.147 21.404 266.637 22.4993 265.848 23.4122C265.197 24.1387 264.714 24.9822 264.427 25.8905C264.14 26.7987 264.057 27.7522 264.182 28.6919V55.87C264.182 55.87 264.034 59.4937 267.018 59.4937C270.589 59.9125 274.202 59.9125 277.773 59.4937C277.773 59.4937 280.162 59.0717 280.162 55.7278V28.9671C280.345 28.0334 280.307 27.074 280.053 26.1552C279.798 25.2364 279.332 24.3803 278.688 23.6461C277.925 22.7299 277.432 21.6436 277.257 20.4948L274.883 4.16043C274.856 3.97679 274.755 3.80961 274.601 3.69289C274.447 3.57616 274.25 3.51864 274.052 3.53201Z" fill="#3F3D56"/>
<path d="M274.067 29.1781H270.444C267.444 29.1781 265.012 31.4474 265.012 34.2467V46.9666C265.012 49.7659 267.444 52.0352 270.444 52.0352H274.067C277.067 52.0352 279.499 49.7659 279.499 46.9666V34.2467C279.499 31.4474 277.067 29.1781 274.067 29.1781Z" fill="#FFD700"/>
<path d="M307.97 26.9258C306.78 27.0378 305.582 27.0638 304.387 27.0038C304.183 26.9831 303.979 27.0378 303.818 27.1562C303.657 27.2745 303.552 27.4472 303.527 27.6368L301.241 43.6364C301.065 44.7978 300.555 45.8931 299.766 46.806C299.115 47.5325 298.632 48.3761 298.345 49.2843C298.058 50.1925 297.975 51.1461 298.1 52.0857V79.2638C298.1 79.2638 297.952 82.8876 300.936 82.8876C304.507 83.3063 308.12 83.3063 311.691 82.8876C311.691 82.8876 314.08 82.4656 314.08 79.1216V52.3609C314.263 51.4273 314.225 50.4678 313.971 49.549C313.716 48.6302 313.25 47.7741 312.606 47.04C311.843 46.1237 311.35 45.0374 311.175 43.8887L308.801 27.5543C308.774 27.3706 308.673 27.2034 308.519 27.0867C308.365 26.97 308.168 26.9125 307.97 26.9258Z" fill="#3F3D56"/>
<path d="M307.985 52.5719H304.362C301.362 52.5719 298.93 54.8412 298.93 57.6406V70.3604C298.93 73.1598 301.362 75.4291 304.362 75.4291H307.985C310.985 75.4291 313.417 73.1598 313.417 70.3604V57.6406C313.417 54.8412 310.985 52.5719 307.985 52.5719Z" fill="#FFD700"/>
<g opacity="0.2">
<path opacity="0.2" d="M269.845 301.015C269.829 301.509 269.768 302.002 269.663 302.487C266.242 301.979 262.801 301.521 259.34 301.111C259.34 300.982 259.34 300.849 259.34 300.716C259.372 299.341 259.796 297.998 260.569 296.827C261.582 295.331 263.12 294.395 264.816 294.446C266.512 294.496 267.982 295.519 268.891 297.065C269.579 298.279 269.908 299.642 269.845 301.015Z" fill="#3F3D56"/>
<path opacity="0.2" d="M270.12 293.182C270.241 289.634 267.984 286.689 265.081 286.603C262.177 286.518 259.726 289.324 259.606 292.872C259.486 296.419 261.742 299.364 264.646 299.45C267.549 299.535 270 296.729 270.12 293.182Z" fill="#3F3D56"/>
<path opacity="0.2" d="M270.389 285.328C270.509 281.781 268.252 278.836 265.349 278.75C262.446 278.665 259.995 281.471 259.874 285.018C259.754 288.566 262.011 291.511 264.914 291.597C267.817 291.682 270.268 288.876 270.389 285.328Z" fill="#3F3D56"/>
<path opacity="0.2" d="M270.652 277.475C270.772 273.928 268.516 270.983 265.612 270.897C262.709 270.811 260.258 273.618 260.138 277.165C260.018 280.713 262.274 283.658 265.177 283.743C268.081 283.829 270.532 281.023 270.652 277.475Z" fill="#3F3D56"/>
<path opacity="0.2" d="M270.92 269.622C271.04 266.075 268.784 263.129 265.881 263.044C262.977 262.958 260.526 265.764 260.406 269.312C260.286 272.859 262.542 275.805 265.445 275.89C268.349 275.976 270.8 273.169 270.92 269.622Z" fill="#3F3D56"/>
<path opacity="0.2" d="M247.773 215.127C247.081 214.252 246.457 213.333 245.905 212.375L259.797 210.664L244.844 210.329C243.509 207.375 242.834 204.199 242.861 200.993C242.887 197.788 243.613 194.622 244.996 191.687L264.718 201.985L246.653 188.756C248.475 186.006 250.886 183.635 253.734 181.793C256.582 179.951 259.806 178.677 263.206 178.05C266.606 177.423 270.107 177.457 273.492 178.15C276.877 178.842 280.073 180.179 282.879 182.076C285.686 183.973 288.043 186.389 289.804 189.174C291.565 191.96 292.691 195.054 293.113 198.263C293.535 201.473 293.243 204.729 292.255 207.829C291.268 210.929 289.606 213.805 287.374 216.278C288.451 217.639 289.365 219.105 290.102 220.65L271.87 228.815L291.203 223.388C292.421 227.137 292.617 231.11 291.774 234.947C290.931 238.785 289.076 242.365 286.376 245.365C289.183 248.918 290.861 253.138 291.22 257.54C291.578 261.942 290.601 266.349 288.402 270.257C286.202 274.166 282.868 277.418 278.781 279.641C274.694 281.865 270.019 282.97 265.29 282.831C260.562 282.692 255.97 281.314 252.041 278.855C248.113 276.395 245.005 272.954 243.073 268.924C241.142 264.894 240.465 260.438 241.12 256.066C241.774 251.693 243.734 247.581 246.776 244.2C243.422 239.953 241.696 234.777 241.874 229.504C242.052 224.232 244.125 219.168 247.759 215.127H247.773Z" fill="#FFD700"/>
<path opacity="0.1" d="M292.275 230.989C292.103 236.265 290.024 241.331 286.376 245.365C289.183 248.918 290.861 253.138 291.22 257.54C291.578 261.942 290.601 266.349 288.402 270.257C286.202 274.166 282.868 277.418 278.781 279.641C274.694 281.865 270.019 282.97 265.29 282.831C260.562 282.692 255.97 281.314 252.042 278.855C248.113 276.395 245.005 272.954 243.073 268.924C241.142 264.894 240.465 260.438 241.12 256.066C241.774 251.693 243.734 247.581 246.776 244.2C243.546 240.103 292.363 228.351 292.275 230.989Z" fill="black"/>
</g>
</g>
<defs>
<clipPath id="clip0">
<rect width="558" height="327" fill="white"/>
</clipPath>
</defs>
</svg>
