<svg width="48" height="48" viewBox="0 0 48 48" fill="none" xmlns="http://www.w3.org/2000/svg">
<path d="M23.9998 0C23.352 0 22.8279 0.55792 22.8279 1.2474V3.7422C22.8279 4.43168 23.352 4.9896 23.9998 4.9896C24.6475 4.9896 25.1717 4.43168 25.1717 3.7422V1.2474C25.1717 0.558004 24.6475 0 23.9998 0Z" fill="#ffffff"/>
<path d="M30.3445 3.22581C29.8868 2.73857 29.1452 2.73849 28.6874 3.22581L27.0303 4.98963C26.5726 5.47687 26.5726 6.26631 27.0303 6.75354C27.4881 7.24078 28.2297 7.24078 28.6874 6.75354L30.3445 4.98963C30.8023 4.5024 30.8023 3.71304 30.3445 3.22581Z" fill="#ffffff"/>
<path d="M20.9696 4.9896L19.3124 3.22578C18.8547 2.73846 18.1131 2.73846 17.6553 3.22578C17.1976 3.71301 17.1976 4.50245 17.6553 4.98968L19.3124 6.7535C19.7702 7.24074 20.5118 7.24074 20.9696 6.7535C21.4273 6.26627 21.4273 5.47692 20.9696 4.9896Z" fill="#ffffff"/>
<path d="M39.1958 16.4788C38.8586 14.4433 37.0353 13.0843 35.1231 13.4431C34.5512 13.5505 33.9684 13.8119 33.5364 14.1626C32.5277 12.6033 30.7334 11.7191 28.8676 12.0693C27.0018 12.4195 25.5999 13.9037 25.153 15.736C24.6344 15.5638 24.0762 15.502 23.5041 15.6093C21.5921 15.9682 20.3152 17.909 20.6524 19.9445C20.9896 21.9799 22.813 23.3388 24.7252 22.98C25.7884 22.7803 26.6414 22.0829 27.1435 21.1611C28.1025 21.8213 29.2821 22.1247 30.4955 21.8969C31.7089 21.6693 32.72 20.9546 33.4091 19.9851C34.1771 20.6687 35.281 21.0134 36.3441 20.8139C38.2563 20.455 39.533 18.514 39.1958 16.4788Z" fill="#ffffff"/>
<path d="M17.0555 12.0541C15.5628 11.7739 14.0649 12.4813 13.258 13.7287C12.9123 13.4481 12.5086 13.239 12.0511 13.1531C10.5213 12.8661 9.06271 13.9533 8.79296 15.5816C8.52321 17.2098 9.54459 18.7626 11.0743 19.0497C11.9248 19.2093 12.7454 18.9335 13.3598 18.3867C13.9111 19.1623 14.7825 19.734 15.7531 19.9161C16.112 19.9835 16.4634 19.9755 16.8074 19.9337C16.6381 19.546 16.498 19.1395 16.4251 18.7009C16.2073 17.3883 16.4838 16.0638 17.2015 14.9724C17.6955 14.2221 18.3651 13.6591 19.1311 13.2951C18.5962 12.6752 17.8953 12.2117 17.0555 12.0541Z" fill="#ffffff"/>
<g filter="url(#filter0_d)">
<path d="M21.4875 24.9807C21.0442 24.7671 20.6276 24.4963 20.2476 24.1723C19.226 24.4891 18.1495 24.5521 17.097 24.3538C16.0384 24.1552 14.9727 23.7021 14.1167 23.0357C13.2066 23.3661 12.2336 23.4533 11.2511 23.271L8.94072 22.8375C7.0286 22.4787 5.20522 23.8377 4.86803 25.8731L4.05396 30.7868C3.71693 32.8223 4.99366 34.7631 6.90586 35.122L8.05986 35.3387C7.83509 36.6956 8.68627 37.9896 9.96104 38.2287L19.2717 39.9616C20.5466 40.2008 21.7622 39.2948 21.987 37.9379L22.8101 32.9686L21.4875 24.9807ZM8.46681 32.8819L7.31282 32.6652C6.67539 32.5457 6.24976 31.8985 6.36226 31.2201L7.17618 26.3063C7.28844 25.6278 7.89634 25.1748 8.53377 25.2945L9.68776 25.5111L8.46681 32.8819Z" fill="#464646"/>
</g>
<g filter="url(#filter1_d)">
<path d="M43.9462 30.7869L43.132 25.8731C42.7948 23.8377 40.9715 22.4787 39.0593 22.8376C39.0593 22.8376 37.1478 23.1962 36.7533 23.2704L36.749 23.2712C35.7671 23.4533 34.7159 23.3663 33.8052 23.0359C32.9492 23.7023 31.9616 24.1554 30.903 24.354C29.8509 24.5521 28.7746 24.4895 27.7525 24.1724C26.9983 24.8156 26.1022 25.2542 25.1329 25.4369C24.7896 25.5014 24.4474 25.5319 24.1098 25.5319C24.0573 25.5319 24.0078 25.5189 23.9556 25.5173L26.0131 37.938C26.2379 39.2949 27.4535 40.2009 28.7283 39.9617L38.0391 38.2287C39.3139 37.9895 40.165 36.6955 39.9403 35.3387L41.0943 35.122C43.0065 34.763 44.2832 32.8223 43.9462 30.7869ZM40.6874 32.665L39.5334 32.8817L38.3124 25.5109L39.4664 25.2944C40.1038 25.1747 40.7116 25.6277 40.824 26.3062L41.6379 31.2199C41.7504 31.8983 41.3248 32.5454 40.6874 32.665Z" fill="#464646"/>
</g>
<defs>
<filter id="filter0_d" x="0" y="22.78" width="26.8101" height="25.2198" filterUnits="userSpaceOnUse" color-interpolation-filters="sRGB">
<feFlood flood-opacity="0" result="BackgroundImageFix"/>
<feColorMatrix in="SourceAlpha" type="matrix" values="0 0 0 0 0 0 0 0 0 0 0 0 0 0 0 0 0 0 127 0"/>
<feOffset dy="4"/>
<feGaussianBlur stdDeviation="2"/>
<feColorMatrix type="matrix" values="0 0 0 0 0 0 0 0 0 0 0 0 0 0 0 0 0 0 0.25 0"/>
<feBlend mode="normal" in2="BackgroundImageFix" result="effect1_dropShadow"/>
<feBlend mode="normal" in="SourceGraphic" in2="effect1_dropShadow" result="shape"/>
</filter>
<filter id="filter1_d" x="19.9556" y="22.7802" width="28.0446" height="25.2198" filterUnits="userSpaceOnUse" color-interpolation-filters="sRGB">
<feFlood flood-opacity="0" result="BackgroundImageFix"/>
<feColorMatrix in="SourceAlpha" type="matrix" values="0 0 0 0 0 0 0 0 0 0 0 0 0 0 0 0 0 0 127 0"/>
<feOffset dy="4"/>
<feGaussianBlur stdDeviation="2"/>
<feColorMatrix type="matrix" values="0 0 0 0 0 0 0 0 0 0 0 0 0 0 0 0 0 0 0.25 0"/>
<feBlend mode="normal" in2="BackgroundImageFix" result="effect1_dropShadow"/>
<feBlend mode="normal" in="SourceGraphic" in2="effect1_dropShadow" result="shape"/>
</filter>
</defs>
</svg>
